<svg xmlns="http://www.w3.org/2000/svg" viewBox="0 0 736 736"><defs><style>.cls-1{fill:#fdfefe;}.cls-2{fill:#0397af;}.cls-3{fill:#fdfdfd;}.cls-4{fill:#fba839;}.cls-5{fill:#fefefd;}</style></defs><title>Recurso 1</title><g id="Capa_2" data-name="Capa 2"><g id="Capa_1-2" data-name="Capa 1"><path class="cls-1" d="M735.87,368.67q0,180.93.13,361.85c0,4.58-.9,5.48-5.48,5.48q-362.52-.21-725,0C.9,736,0,735.1,0,730.52Q.21,368,0,5.48C0,.9.9,0,5.48,0q362.52.21,725,0C735.1,0,736,.9,736,5.48Q735.76,187.07,735.87,368.67Zm-33.44-.43c.27-184.19-150-334.59-334.36-334.67C184,33.48,34.26,183,33.57,367.44c-.69,184,149.48,334.56,334,335C551.72,702.86,702.17,552.71,702.43,368.24Z"/><path class="cls-2" d="M702.43,368.24c-.26,184.47-150.71,334.62-334.83,334.19-184.55-.43-334.72-151-334-335C34.26,183,184,33.48,368.07,33.57,552.44,33.65,702.7,184.05,702.43,368.24Zm-26.76,1.19c.39-169.77-136.33-307.24-306.08-307.76S62.21,197.92,61.67,367.58c-.55,170.05,136.44,307.79,306.41,308.09C537.84,676,675.29,539.13,675.67,369.43Z"/><path class="cls-3" d="M675.67,369.43C675.29,539.13,537.84,676,368.08,675.67c-170-.3-307-138-306.41-308.09C62.21,197.92,199.89,61.15,369.59,61.67S676.06,199.66,675.67,369.43ZM134,526.3A115.19,115.19,0,0,1,163.32,478c27.89-27.9,62.27-44,99.49-55.09,3.84-1.14,6.17.4,8.79,2.86,24.31,22.82,53.06,35.3,86.46,37.35,40.32,2.48,74.74-11.26,104.7-37.4,3.3-2.88,6-3.58,10.08-2.2,21.18,7.12,41.68,15.74,60.84,27.3,24.8,15,46.46,33.17,59.35,59.91,2.94,6.1,5,12.65,7.45,19.09,61.33-80.07,84.4-237-25.58-355.2C476.22,68.58,306.42,51.48,186.74,151.91,66.53,252.8,59.3,418.88,134,526.3Z"/><path class="cls-4" d="M134,526.3C59.3,418.88,66.53,252.8,186.74,151.91,306.42,51.48,476.22,68.58,574.9,174.65c110,118.22,86.91,275.13,25.58,355.2-2.49-6.44-4.51-13-7.45-19.09-12.89-26.74-34.55-44.93-59.35-59.91-19.16-11.56-39.66-20.18-60.84-27.3-4.11-1.38-6.78-.68-10.08,2.2-30,26.14-64.38,39.88-104.7,37.4-33.4-2-62.15-14.53-86.46-37.35-2.62-2.46-5-4-8.79-2.86C225.59,434,191.21,450.13,163.32,478A115.19,115.19,0,0,0,134,526.3ZM495.13,291.91c-.38-33.7-7.34-60.69-22.63-85.42C434.27,144.68,358.33,134.07,312,160.91c-46.92,27.17-68.21,70.48-67.57,123.18.74,61.23,29,106.17,86.12,132.23,35.23,16.07,68.59,12.15,100-7.28C475.28,381.32,493.47,338.32,495.13,291.91Z"/><path class="cls-5" d="M495.13,291.91c-1.66,46.41-19.85,89.41-64.62,117.13-31.38,19.43-64.74,23.35-100,7.28-57.12-26.06-85.38-71-86.12-132.23-.64-52.7,20.65-96,67.57-123.18,46.34-26.84,122.28-16.23,160.51,45.58C487.79,231.22,494.75,258.21,495.13,291.91Z"/></g></g></svg>